<svg xmlns="http://www.w3.org/2000/svg" fill="none" viewBox="0 0 56 56">
  <g clip-path="url(#hldguDx1Oa)">
    <path d="M56 28c0-1-.81-1.809-1.81-1.809h-3.224l3.23-3.974a1.81 1.81 0 10-2.808-2.284l-5.086 6.26h-4.477a13.873 13.873 0 00-2.773-6.684l3.168-3.168 8.021.827a1.81 1.81 0 10.37-3.6l-5.093-.525 2.279-2.28a1.81 1.81 0 00-2.56-2.559l-2.28 2.28-.524-5.096a1.805 1.805 0 00-1.986-1.615 1.809 1.809 0 00-1.614 1.987l.827 8.023-3.17 3.17a13.862 13.862 0 00-6.681-2.775V9.702l6.257-5.088a1.81 1.81 0 00-2.282-2.808l-3.975 3.231V1.81c0-1-.81-1.81-1.809-1.81v18.151c5.43 0 9.849 4.419 9.849 9.85S33.43 37.849 28 37.849V56c1 0 1.81-.81 1.81-1.809v-3.225l3.975 3.23a1.807 1.807 0 002.545-.261 1.81 1.81 0 00-.263-2.546l-6.257-5.087v-4.476a13.87 13.87 0 006.682-2.773l3.17 3.17-.828 8.022a1.808 1.808 0 001.801 1.995 1.81 1.81 0 001.799-1.624l.525-5.096 2.28 2.28a1.804 1.804 0 002.559 0 1.809 1.809 0 000-2.558l-2.28-2.28 5.095-.525a1.81 1.81 0 001.614-1.986 1.805 1.805 0 00-1.986-1.616l-8.02.828-3.17-3.17a13.88 13.88 0 002.773-6.682h4.478l5.086 6.257a1.8 1.8 0 001.405.668 1.808 1.808 0 001.403-2.951l-3.231-3.975h3.224C55.188 29.81 56 29 56 28z" fill="#27AAE1"/>
    <path d="M28 18.151V0c-1 0-1.81.81-1.81 1.81v12.364a13.98 13.98 0 00-1.776.351l-2.51-6.097a1.809 1.809 0 10-3.346 1.379l2.512 6.099c-.544.313-1.066.66-1.561 1.042L10.76 8.2a1.81 1.81 0 00-2.559 2.56l8.747 8.747c-.368.477-.706.98-1.01 1.503l-6.131-2.477a1.809 1.809 0 00-1.356 3.355l6.091 2.46a13.943 13.943 0 00-.367 1.841H1.81a1.81 1.81 0 100 3.618h12.365c.079.604.197 1.196.35 1.772l-6.004 2.426a1.809 1.809 0 101.356 3.354l6.027-2.435c.314.545.662 1.07 1.044 1.565L8.2 45.236a1.809 1.809 0 102.56 2.558l8.748-8.747a14.02 14.02 0 001.57 1.048L18.56 46.09a1.809 1.809 0 103.336 1.402l2.527-6.017a13.8 13.8 0 001.766.349v12.365c0 1 .81 1.81 1.81 1.81V37.846c-5.43 0-9.848-4.419-9.848-9.849 0-5.43 4.418-9.85 9.848-9.85l.001.003z" fill="#FFECD5"/>
  </g>
  <defs>
    <clipPath id="hldguDx1Oa">
      <path fill="#fff" d="M0 0h56v56H0z"/>
    </clipPath>
  </defs>
</svg>
