<svg xmlns="http://www.w3.org/2000/svg" fill="none" viewBox="0 0 120 49">
  <path d="M0 48.536c0-6.374 1.548-12.685 4.555-18.574 3.008-5.889 7.416-11.24 12.973-15.746 5.558-4.507 12.155-8.082 19.416-10.521C44.204 1.255 51.986 0 59.845 0c7.86 0 15.642 1.255 22.902 3.695 7.261 2.439 13.858 6.014 19.416 10.52 5.557 4.508 9.965 9.858 12.972 15.747 3.008 5.889 4.556 12.2 4.556 18.574h-5.823c0-5.754-1.398-11.45-4.113-16.767-2.715-5.315-6.694-10.145-11.71-14.213-5.017-4.069-10.972-7.296-17.526-9.498-6.555-2.202-13.58-3.335-20.674-3.335-7.094 0-14.119 1.133-20.673 3.335-6.554 2.202-12.51 5.429-17.526 9.497-5.016 4.069-8.996 8.899-11.71 14.215-2.715 5.315-4.113 11.012-4.113 16.766H0z" fill="url(#k2NYLI4ntya)"/>
  <defs>
    <linearGradient id="k2NYLI4ntya" x1="127.244" y1="35.903" x2="-26.933" y2="46.072" gradientUnits="userSpaceOnUse">
      <stop offset=".014" stop-color="#F72D2D"/>
      <stop offset=".529" stop-color="#CED96D"/>
      <stop offset="1" stop-color="#8CB869"/>
    </linearGradient>
  </defs>
</svg>
