<svg xmlns="http://www.w3.org/2000/svg" fill="none" viewBox="0 0 36 34">
  <path d="M0 16.826a1.44 1.44 0 011.428-1.429h2.857a1.44 1.44 0 011.429 1.429 1.44 1.44 0 01-1.429 1.428H1.428c-.78 0-1.428-.647-1.428-1.428zm29.998 1.428h2.857c.78 0 1.428-.647 1.428-1.428 0-.781-.647-1.429-1.428-1.429h-2.857a1.44 1.44 0 00-1.429 1.429c0 .78.648 1.428 1.429 1.428zM5.028 6.731l2.02 2.02a1.437 1.437 0 002.018 0 1.437 1.437 0 000-2.02L7.047 4.712a1.437 1.437 0 00-2.019 0c-.552.553-.571 1.467 0 2.02zm22.208-2.019l-2.019 2.02a1.437 1.437 0 000 2.018 1.437 1.437 0 002.02 0l2.018-2.019a1.437 1.437 0 000-2.019 1.403 1.403 0 00-2.019 0zm-.571 12.114c0 5.256-4.267 9.523-9.523 9.523-5.257 0-9.523-4.267-9.523-9.523 0-5.257 4.266-9.523 9.523-9.523 5.256 0 9.523 4.266 9.523 9.523zM15.146 4.285V1.428c0-.78.647-1.428 1.428-1.428a1.44 1.44 0 011.429 1.428v2.857a1.44 1.44 0 01-1.429 1.429 1.44 1.44 0 01-1.428-1.429z" fill="#FFD601"/>
  <path stroke="#fff" stroke-width="1.681" d="M0 25.733h35.292"/>
  <path d="M16.526 25.372v6.024l-3.242-2.632a.785.785 0 00-.944 0c-.259.21-.259.55 0 .76l4.379 3.554c.26.21.678.21.937 0l4.379-3.553c.259-.21.259-.55 0-.76a.775.775 0 00-.937 0l-3.243 2.63v-6.023c0-.296-.299-.539-.664-.539-.366 0-.665.243-.665.54z" fill="#fff"/>
</svg>
