<svg xmlns="http://www.w3.org/2000/svg" fill="none" viewBox="0 0 42 31">
  <path d="M37.91 14.726h2.265a1.14 1.14 0 001.132-1.133c0-.619-.513-1.133-1.133-1.133H37.91a1.14 1.14 0 00-1.133 1.133c0 .62.513 1.133 1.133 1.133zM26.585 1.133v2.265c0 .62.513 1.133 1.132 1.133a1.14 1.14 0 001.133-1.133V1.133A1.14 1.14 0 0027.716 0a1.14 1.14 0 00-1.133 1.133zm9.135 2.854l-1.6 1.601a1.14 1.14 0 000 1.601 1.14 1.14 0 001.6 0l1.6-1.6a1.14 1.14 0 000-1.602 1.112 1.112 0 00-1.6 0zm-.453 9.606a7.554 7.554 0 01-7.55 7.552 7.554 7.554 0 01-7.55-7.552 7.554 7.554 0 017.55-7.552 7.554 7.554 0 017.55 7.552z" fill="#FFD601"/>
  <path d="M28.454 17.696c-1-4.348-5.456-7.613-10.808-7.613-4.25 0-7.94 2.068-9.779 5.093C3.441 15.579 0 18.793 0 22.688c0 4.172 3.956 7.562 8.823 7.562h19.116c4.059 0 7.353-2.823 7.353-6.302 0-3.327-3.015-6.025-6.838-6.252z" fill="#F4F4F4"/>
</svg>
