<svg xmlns="http://www.w3.org/2000/svg" fill="none" viewBox="0 0 36 29">
  <path d="M0 18.822c0-.78.648-1.428 1.428-1.428h2.857a1.44 1.44 0 011.429 1.428 1.44 1.44 0 01-1.429 1.429H1.428A1.44 1.44 0 010 18.822zm29.998 1.429h2.857a1.44 1.44 0 001.428-1.429c0-.78-.647-1.428-1.428-1.428h-2.857a1.44 1.44 0 00-1.429 1.428 1.44 1.44 0 001.429 1.429zM5.028 8.728l2.02 2.019a1.437 1.437 0 002.018 0 1.437 1.437 0 000-2.02L7.047 6.71a1.437 1.437 0 00-2.019 0c-.552.552-.571 1.466 0 2.019zm22.208-2.02l-2.019 2.02a1.437 1.437 0 000 2.019 1.437 1.437 0 002.02 0l2.018-2.02a1.437 1.437 0 000-2.018 1.403 1.403 0 00-2.019 0zm-.571 12.114c0 5.257-4.267 9.524-9.523 9.524-5.257 0-9.523-4.267-9.523-9.524 0-5.256 4.266-9.523 9.523-9.523 5.256 0 9.523 4.267 9.523 9.523z" fill="#FFD601"/>
  <path stroke="#fff" stroke-width="1.681" d="M0 27.729h35.292"/>
  <path d="M17.467 7.864V1.84l3.243 2.632c.259.21.684.21.943 0 .26-.21.26-.55 0-.76L17.274.157a.775.775 0 00-.937 0L11.96 3.71c-.26.21-.26.55 0 .76a.773.773 0 00.937 0l3.242-2.63v6.023c0 .296.3.539.665.539.365 0 .664-.243.664-.54z" fill="#fff"/>
</svg>
